<svg id="bdc5c380-37e7-4c39-b13a-d819854eb210" data-name="Ebene 1" xmlns="http://www.w3.org/2000/svg" width="437" height="143" viewBox="0 0 437 143"><defs><style>.b4638506-c334-41c5-8726-cae62749b271{fill:#fff;}</style></defs><path class="b4638506-c334-41c5-8726-cae62749b271" d="M167.31,6.56A14.63,14.63,0,0,1,178,10.72a14.31,14.31,0,0,1,4.21,10.64v5.87A14.34,14.34,0,0,1,178,37.89,14.71,14.71,0,0,1,167.31,42H151.36V37.74l3.78-.73V11.57l-3.78-.73V6.56h15.95ZM162.24,12V36.55h4.7a7.39,7.39,0,0,0,6-2.58,10.16,10.16,0,0,0,2.17-6.74V21.31a10.08,10.08,0,0,0-2.17-6.69,7.39,7.39,0,0,0-6-2.58Z"/><path class="b4638506-c334-41c5-8726-cae62749b271" d="M185.68,37.74l3.44-.73V20.68l-3.8-.73V15.66h10.9V37l3.41.73V42H185.68ZM196.22,9.36h-7.1V4h7.1Z"/><path class="b4638506-c334-41c5-8726-cae62749b271" d="M202.41,29.05q0-6.23,2.7-10a8.82,8.82,0,0,1,7.62-3.82,7.53,7.53,0,0,1,3.89,1,8.6,8.6,0,0,1,2.87,2.8l.51-3.31h6.19V41.22a10.86,10.86,0,0,1-3.29,8.3q-3.26,3.12-9,3.12a17.73,17.73,0,0,1-4.24-.56,18.88,18.88,0,0,1-4.13-1.49l1.31-5a21.73,21.73,0,0,0,3.41,1.15,14.44,14.44,0,0,0,3.6.43,4.7,4.7,0,0,0,3.89-1.58,6.77,6.77,0,0,0,1.29-4.4V39.47a7.82,7.82,0,0,1-2.75,2.26,8.06,8.06,0,0,1-3.62.78A9,9,0,0,1,205.11,39a15.22,15.22,0,0,1-2.7-9.4Zm7.1.51A10.76,10.76,0,0,0,210.68,35a4.08,4.08,0,0,0,3.8,2,5.89,5.89,0,0,0,2.75-.59,4.57,4.57,0,0,0,1.82-1.75V23.21a4.83,4.83,0,0,0-1.82-1.85,5.25,5.25,0,0,0-2.7-.66A4,4,0,0,0,210.71,23a13.16,13.16,0,0,0-1.2,6Z"/><path class="b4638506-c334-41c5-8726-cae62749b271" d="M230.23,37.74l3.43-.73V20.68l-3.8-.73V15.66h10.91V37l3.41.73V42h-14ZM240.77,9.36h-7.11V4h7.11Z"/><path class="b4638506-c334-41c5-8726-cae62749b271" d="M275.38,18.51H270.1l-.73-4.72a7.4,7.4,0,0,0-2.66-1.66,10.52,10.52,0,0,0-3.74-.6,8.4,8.4,0,0,0-7.14,3.35,14.42,14.42,0,0,0-2.48,8.77v1.24a14.55,14.55,0,0,0,2.48,8.79,8.21,8.21,0,0,0,7,3.38,11.4,11.4,0,0,0,3.83-.61,6.61,6.61,0,0,0,2.7-1.65l.73-4.73h5.28v7a15.26,15.26,0,0,1-5.48,4,18.23,18.23,0,0,1-7.42,1.46,15.2,15.2,0,0,1-11.69-4.94q-4.54-4.93-4.55-12.68V23.7A18.1,18.1,0,0,1,250.77,11a15.12,15.12,0,0,1,11.71-5,17.6,17.6,0,0,1,7.42,1.51,15.8,15.8,0,0,1,5.48,3.94Z"/><path class="b4638506-c334-41c5-8726-cae62749b271" d="M295.61,42a10.86,10.86,0,0,1-.51-1.34,10.32,10.32,0,0,1-.34-1.41,9.85,9.85,0,0,1-3.1,2.36,9.12,9.12,0,0,1-4.13.9,8.79,8.79,0,0,1-6.16-2.09,7.49,7.49,0,0,1-2.27-5.75,6.53,6.53,0,0,1,3-5.72c2-1.34,4.89-2,8.72-2h3.62V24.35a3.88,3.88,0,0,0-1.09-2.94,4.51,4.51,0,0,0-3.24-1.05,7.48,7.48,0,0,0-2.16.29,5.43,5.43,0,0,0-1.54.66l-.46,2.82h-5.36l0-5.84A20.3,20.3,0,0,1,285,16.08a16.31,16.31,0,0,1,5.5-.9,12.38,12.38,0,0,1,7.94,2.41,8.13,8.13,0,0,1,3.07,6.81v12c0,.35.05.69.09,1l2.17.29V42Zm-6.16-4.75a6.19,6.19,0,0,0,2.92-.68,5.61,5.61,0,0,0,2-1.75v-4h-3.62a4.91,4.91,0,0,0-3.43,1.07,3.3,3.3,0,0,0-1.17,2.54A2.64,2.64,0,0,0,287,36.5,3.58,3.58,0,0,0,289.45,37.25Z"/><path class="b4638506-c334-41c5-8726-cae62749b271" d="M305.42,20V15.66h10.39l.29,3.48a8.84,8.84,0,0,1,3.17-2.92,9.17,9.17,0,0,1,4.43-1A8,8,0,0,1,328,16.3a6.89,6.89,0,0,1,2.73,3.38,9.06,9.06,0,0,1,3.16-3.31,8.53,8.53,0,0,1,4.57-1.19,7.55,7.55,0,0,1,6.14,2.7q2.26,2.67,2.26,8.18V37l3.44.73V42H336.72V37.74l3.07-.73V26c0-2-.33-3.38-1-4.16a3.54,3.54,0,0,0-2.89-1.17,5,5,0,0,0-2.63.68,4.9,4.9,0,0,0-1.76,1.85q0,.46,0,.81c0,.21,0,.43,0,.65V37l2.87.73V42H321.63V37.74L324.5,37V26a6.68,6.68,0,0,0-1-4.11,3.53,3.53,0,0,0-2.92-1.22,5.56,5.56,0,0,0-2.54.56,4.76,4.76,0,0,0-1.77,1.54V37l3.06.73V42H305.78V37.74l3.43-.73V20.68Z"/><path class="b4638506-c334-41c5-8726-cae62749b271" d="M352.1,20V15.66h10.32l.34,3.07a8.52,8.52,0,0,1,2.8-2.63,7.56,7.56,0,0,1,3.8-.92A8.75,8.75,0,0,1,377,19q2.71,3.83,2.71,10.05v.51q0,5.85-2.71,9.4a8.92,8.92,0,0,1-7.54,3.55,8.61,8.61,0,0,1-3.68-.75A7.68,7.68,0,0,1,363,39.49v7.62l3.43.73v4.29H352.47V47.84l3.43-.73V20.68Zm20.45,9.1a12.88,12.88,0,0,0-1.24-6,4.06,4.06,0,0,0-3.8-2.31,5.41,5.41,0,0,0-2.75.66A4.72,4.72,0,0,0,363,23.23V34.77a4.28,4.28,0,0,0,1.78,1.7,6.07,6.07,0,0,0,2.8.59,4,4,0,0,0,3.77-2,10.6,10.6,0,0,0,1.22-5.48Z"/><path class="b4638506-c334-41c5-8726-cae62749b271" d="M401.25,38.67a8.62,8.62,0,0,1-7.38,3.84,8.27,8.27,0,0,1-6.52-2.65c-1.58-1.79-2.36-4.55-2.36-8.3V20.68l-2.9-.73V15.66h10v16a7,7,0,0,0,1,4.13A3.44,3.44,0,0,0,395.92,37a7.07,7.07,0,0,0,2.89-.54,5.12,5.12,0,0,0,2-1.58V20.68L397.72,20V15.66h10.22V37l3.19.73V42h-9.42Z"/><path class="b4638506-c334-41c5-8726-cae62749b271" d="M435.42,24.72h-4.77l-.76-3.29a6.13,6.13,0,0,0-1.84-1,7.26,7.26,0,0,0-2.44-.39,4.7,4.7,0,0,0-3,.85A2.52,2.52,0,0,0,421.55,23a2.42,2.42,0,0,0,1,2,11.52,11.52,0,0,0,4.19,1.39A16.86,16.86,0,0,1,434,29.27a6.24,6.24,0,0,1,2.36,5.18,6.94,6.94,0,0,1-3.06,5.82,13.26,13.26,0,0,1-8,2.24,17,17,0,0,1-5.6-.88,14.61,14.61,0,0,1-4.51-2.55l-.07-5.92h5l1,3.44a4.28,4.28,0,0,0,1.73.8,10.65,10.65,0,0,0,2.29.24,5.74,5.74,0,0,0,3.28-.78,2.44,2.44,0,0,0,1.15-2.11,2.48,2.48,0,0,0-1.15-2,11.6,11.6,0,0,0-4.21-1.51,17.22,17.22,0,0,1-7-2.8,6.14,6.14,0,0,1-2.36-5.09,7.33,7.33,0,0,1,2.72-5.7q2.73-2.4,7.77-2.4a19.91,19.91,0,0,1,5.79.82,12.29,12.29,0,0,1,4.31,2.12Z"/><path class="b4638506-c334-41c5-8726-cae62749b271" d="M161.54,64.35h-5.37V70h-1.68V57.2h7.92v1.39h-6.24V63h5.37Z"/><path class="b4638506-c334-41c5-8726-cae62749b271" d="M166,70h-1.63V60.49H166Zm-1.76-12a1,1,0,0,1,.24-.67.91.91,0,0,1,.72-.27.94.94,0,0,1,.72.27,1,1,0,0,1,0,1.33,1,1,0,0,1-.72.26,1,1,0,0,1-.72-.26A1,1,0,0,1,164.19,58Z"/><path class="b4638506-c334-41c5-8726-cae62749b271" d="M170.1,60.49l.05,1.2A3.44,3.44,0,0,1,173,60.31c2,0,3,1.14,3,3.41V70h-1.63V63.71a2.17,2.17,0,0,0-.47-1.52,1.89,1.89,0,0,0-1.44-.5,2.32,2.32,0,0,0-1.39.43,2.93,2.93,0,0,0-.93,1.1V70h-1.62V60.49Z"/><path class="b4638506-c334-41c5-8726-cae62749b271" d="M178.09,65.17a5.58,5.58,0,0,1,1-3.52,3.51,3.51,0,0,1,5.36-.19v-5h1.63V70h-1.5l-.08-1a3.5,3.5,0,0,1-5.41-.16,5.65,5.65,0,0,1-1-3.53Zm1.63.18a4.18,4.18,0,0,0,.67,2.53,2.15,2.15,0,0,0,1.84.92,2.38,2.38,0,0,0,2.26-1.39V63a2.38,2.38,0,0,0-2.24-1.35,2.15,2.15,0,0,0-1.86.93A4.58,4.58,0,0,0,179.72,65.35Z"/><path class="b4638506-c334-41c5-8726-cae62749b271" d="M192.6,70.18a4.19,4.19,0,0,1-3.15-1.27,4.72,4.72,0,0,1-1.21-3.4v-.3a5.68,5.68,0,0,1,.53-2.52A4.15,4.15,0,0,1,190.28,61a3.84,3.84,0,0,1,2.11-.64,3.53,3.53,0,0,1,2.88,1.23,5.25,5.25,0,0,1,1,3.49v.68h-6.44a3.41,3.41,0,0,0,.82,2.28,2.61,2.61,0,0,0,2,.86,2.87,2.87,0,0,0,1.46-.35,3.86,3.86,0,0,0,1.05-.93l1,.77A4,4,0,0,1,192.6,70.18Zm-.21-8.53a2.18,2.18,0,0,0-1.65.72,3.47,3.47,0,0,0-.83,2h4.77v-.13a3.08,3.08,0,0,0-.67-1.91A2,2,0,0,0,192.39,61.65Z"/><path class="b4638506-c334-41c5-8726-cae62749b271" d="M202.26,65.17a5.58,5.58,0,0,1,1-3.52,3.51,3.51,0,0,1,5.36-.19v-5h1.63V70h-1.5l-.08-1a3.5,3.5,0,0,1-5.41-.16,5.65,5.65,0,0,1-1-3.53Zm1.63.18a4.18,4.18,0,0,0,.67,2.53,2.15,2.15,0,0,0,1.84.92,2.38,2.38,0,0,0,2.26-1.39V63a2.38,2.38,0,0,0-2.24-1.35,2.15,2.15,0,0,0-1.86.93A4.58,4.58,0,0,0,203.89,65.35Z"/><path class="b4638506-c334-41c5-8726-cae62749b271" d="M216.76,70.18a4.18,4.18,0,0,1-3.14-1.27,4.72,4.72,0,0,1-1.22-3.4v-.3a5.69,5.69,0,0,1,.54-2.52A4.15,4.15,0,0,1,214.45,61a3.84,3.84,0,0,1,2.11-.64,3.57,3.57,0,0,1,2.89,1.23,5.3,5.3,0,0,1,1,3.49v.68H214a3.41,3.41,0,0,0,.82,2.28,2.61,2.61,0,0,0,2,.86,2.87,2.87,0,0,0,1.46-.35,3.86,3.86,0,0,0,1.05-.93l1,.77A4,4,0,0,1,216.76,70.18Zm-.2-8.53a2.16,2.16,0,0,0-1.65.72,3.47,3.47,0,0,0-.83,2h4.77v-.13a3.08,3.08,0,0,0-.67-1.91A2,2,0,0,0,216.56,61.65Z"/><path class="b4638506-c334-41c5-8726-cae62749b271" d="M224.13,70H222.5V60.49h1.63Zm-1.76-12a1,1,0,0,1,.24-.67,1.09,1.09,0,0,1,1.44,0,1,1,0,0,1,0,1.33,1.13,1.13,0,0,1-1.44,0A1,1,0,0,1,222.37,58Z"/><path class="b4638506-c334-41c5-8726-cae62749b271" d="M228.28,60.49l.05,1.2a3.47,3.47,0,0,1,2.85-1.38q3,0,3,3.41V70h-1.63V63.71a2.13,2.13,0,0,0-.47-1.52,1.87,1.87,0,0,0-1.43-.5,2.3,2.3,0,0,0-1.39.43,2.84,2.84,0,0,0-.93,1.1V70h-1.63V60.49Z"/><path class="b4638506-c334-41c5-8726-cae62749b271" d="M249.17,65.35a5.72,5.72,0,0,1-1,3.5,3.21,3.21,0,0,1-2.69,1.33,3.51,3.51,0,0,1-2.73-1.1v4.58h-1.62V60.49h1.48l.08,1a3.34,3.34,0,0,1,2.76-1.23,3.25,3.25,0,0,1,2.71,1.3,5.72,5.72,0,0,1,1,3.59Zm-1.63-.18a4.16,4.16,0,0,0-.68-2.54,2.2,2.2,0,0,0-1.88-.94A2.41,2.41,0,0,0,242.76,63v4.55a2.39,2.39,0,0,0,2.23,1.3,2.21,2.21,0,0,0,1.86-.92A4.64,4.64,0,0,0,247.54,65.17Z"/><path class="b4638506-c334-41c5-8726-cae62749b271" d="M257.11,70a3.68,3.68,0,0,1-.22-1,3.66,3.66,0,0,1-2.71,1.18,3.36,3.36,0,0,1-2.31-.8,2.57,2.57,0,0,1-.9-2,2.69,2.69,0,0,1,1.13-2.3,5.3,5.3,0,0,1,3.18-.83h1.58v-.74a1.83,1.83,0,0,0-.51-1.36,2,2,0,0,0-1.5-.51,2.39,2.39,0,0,0-1.46.44,1.32,1.32,0,0,0-.59,1.07h-1.64a2.2,2.2,0,0,1,.51-1.37A3.42,3.42,0,0,1,253,60.7a4.58,4.58,0,0,1,1.9-.39,3.76,3.76,0,0,1,2.58.83,3,3,0,0,1,1,2.26v4.38a5.42,5.42,0,0,0,.33,2.08V70Zm-2.69-1.24a2.9,2.9,0,0,0,1.45-.39,2.51,2.51,0,0,0,1-1v-2h-1.27c-2,0-3,.58-3,1.74a1.49,1.49,0,0,0,.51,1.2A1.93,1.93,0,0,0,254.42,68.76Z"/><path class="b4638506-c334-41c5-8726-cae62749b271" d="M266.57,67.48a1.19,1.19,0,0,0-.5-1,4.49,4.49,0,0,0-1.73-.63,8.32,8.32,0,0,1-2-.64,2.74,2.74,0,0,1-1.07-.88A2.1,2.1,0,0,1,261,63.1a2.47,2.47,0,0,1,1-2,3.86,3.86,0,0,1,2.53-.81,3.94,3.94,0,0,1,2.62.84,2.67,2.67,0,0,1,1,2.14h-1.63a1.47,1.47,0,0,0-.58-1.16,2.1,2.1,0,0,0-1.42-.48,2.23,2.23,0,0,0-1.39.39,1.21,1.21,0,0,0-.5,1,1,1,0,0,0,.47.89,6,6,0,0,0,1.67.57,8.65,8.65,0,0,1,2,.65,2.75,2.75,0,0,1,1.12.91,2.16,2.16,0,0,1,.37,1.29,2.44,2.44,0,0,1-1,2,4.3,4.3,0,0,1-2.65.77,4.79,4.79,0,0,1-2-.41,3.41,3.41,0,0,1-1.38-1.12,2.75,2.75,0,0,1-.49-1.58h1.63a1.67,1.67,0,0,0,.65,1.3,2.53,2.53,0,0,0,1.61.48,2.6,2.6,0,0,0,1.48-.37A1.14,1.14,0,0,0,266.57,67.48Z"/><path class="b4638506-c334-41c5-8726-cae62749b271" d="M275.85,67.48a1.17,1.17,0,0,0-.5-1,4.49,4.49,0,0,0-1.73-.63,8.32,8.32,0,0,1-2-.64,2.74,2.74,0,0,1-1.07-.88,2.1,2.1,0,0,1-.34-1.21,2.46,2.46,0,0,1,1-2,3.88,3.88,0,0,1,2.53-.81,3.94,3.94,0,0,1,2.62.84,2.67,2.67,0,0,1,1,2.14h-1.63a1.49,1.49,0,0,0-.57-1.16,2.13,2.13,0,0,0-1.43-.48,2.23,2.23,0,0,0-1.39.39,1.21,1.21,0,0,0-.5,1,1,1,0,0,0,.47.89,6,6,0,0,0,1.68.57,8.71,8.71,0,0,1,2,.65,2.75,2.75,0,0,1,1.12.91,2.16,2.16,0,0,1,.37,1.29,2.44,2.44,0,0,1-1,2,4.3,4.3,0,0,1-2.65.77,4.79,4.79,0,0,1-2-.41,3.41,3.41,0,0,1-1.38-1.12,2.75,2.75,0,0,1-.49-1.58h1.63a1.67,1.67,0,0,0,.65,1.3,2.55,2.55,0,0,0,1.61.48,2.6,2.6,0,0,0,1.48-.37A1.14,1.14,0,0,0,275.85,67.48Z"/><path class="b4638506-c334-41c5-8726-cae62749b271" d="M283.54,70.18a4.18,4.18,0,0,1-3.14-1.27,4.72,4.72,0,0,1-1.22-3.4v-.3a5.69,5.69,0,0,1,.54-2.52A4.15,4.15,0,0,1,281.23,61a3.84,3.84,0,0,1,2.11-.64,3.57,3.57,0,0,1,2.89,1.23,5.3,5.3,0,0,1,1,3.49v.68h-6.44a3.41,3.41,0,0,0,.82,2.28,2.59,2.59,0,0,0,2,.86,2.87,2.87,0,0,0,1.46-.35,3.86,3.86,0,0,0,1.05-.93l1,.77A4,4,0,0,1,283.54,70.18Zm-.2-8.53a2.18,2.18,0,0,0-1.65.72,3.47,3.47,0,0,0-.83,2h4.77v-.13a3.08,3.08,0,0,0-.67-1.91A2,2,0,0,0,283.34,61.65Z"/><path class="b4638506-c334-41c5-8726-cae62749b271" d="M290.68,60.49l.05,1.2a3.47,3.47,0,0,1,2.85-1.38q3,0,3,3.41V70H295V63.71a2.17,2.17,0,0,0-.48-1.52,1.85,1.85,0,0,0-1.43-.5,2.3,2.3,0,0,0-1.39.43,2.84,2.84,0,0,0-.93,1.1V70h-1.63V60.49Z"/><path class="b4638506-c334-41c5-8726-cae62749b271" d="M298.68,65.17a5.52,5.52,0,0,1,1-3.52,3.27,3.27,0,0,1,2.71-1.34,3.31,3.31,0,0,1,2.65,1.15v-5h1.62V70h-1.49l-.08-1a3.31,3.31,0,0,1-2.72,1.2,3.25,3.25,0,0,1-2.69-1.36,5.59,5.59,0,0,1-1-3.53Zm1.62.18a4.25,4.25,0,0,0,.67,2.53,2.17,2.17,0,0,0,1.85.92,2.39,2.39,0,0,0,2.26-1.39V63a2.4,2.4,0,0,0-2.24-1.35,2.18,2.18,0,0,0-1.87.93A4.65,4.65,0,0,0,300.3,65.35Z"/><path class="b4638506-c334-41c5-8726-cae62749b271" d="M313.18,70.18A4.19,4.19,0,0,1,310,68.91a4.76,4.76,0,0,1-1.21-3.4v-.3a5.69,5.69,0,0,1,.54-2.52A4.15,4.15,0,0,1,310.87,61a3.82,3.82,0,0,1,2.11-.64,3.55,3.55,0,0,1,2.88,1.23,5.25,5.25,0,0,1,1,3.49v.68h-6.44a3.36,3.36,0,0,0,.82,2.28,2.59,2.59,0,0,0,2,.86,2.89,2.89,0,0,0,1.46-.35,3.68,3.68,0,0,0,1-.93l1,.77A4,4,0,0,1,313.18,70.18Zm-.2-8.53a2.15,2.15,0,0,0-1.65.72,3.47,3.47,0,0,0-.83,2h4.76v-.13a3.08,3.08,0,0,0-.66-1.91A2,2,0,0,0,313,61.65Z"/><path class="b4638506-c334-41c5-8726-cae62749b271" d="M324.32,67.48a1.19,1.19,0,0,0-.5-1,4.55,4.55,0,0,0-1.74-.63,8.32,8.32,0,0,1-2-.64,2.82,2.82,0,0,1-1.07-.88,2.1,2.1,0,0,1-.34-1.21,2.49,2.49,0,0,1,1-2,4.43,4.43,0,0,1,5.15,0,2.64,2.64,0,0,1,1,2.14h-1.63a1.49,1.49,0,0,0-.57-1.16,2.12,2.12,0,0,0-1.42-.48,2.19,2.19,0,0,0-1.39.39,1.19,1.19,0,0,0-.51,1,1,1,0,0,0,.47.89,6,6,0,0,0,1.68.57,9,9,0,0,1,2,.65,2.78,2.78,0,0,1,1.11.91,2.16,2.16,0,0,1,.37,1.29,2.44,2.44,0,0,1-1,2,4.29,4.29,0,0,1-2.64.77,4.76,4.76,0,0,1-2-.41,3.28,3.28,0,0,1-1.38-1.12,2.77,2.77,0,0,1-.5-1.58H320a1.7,1.7,0,0,0,.65,1.3,3,3,0,0,0,3.09.11A1.15,1.15,0,0,0,324.32,67.48Z"/><path class="b4638506-c334-41c5-8726-cae62749b271" d="M334.48,68.62h6.06V70h-7.76V57.2h1.7Z"/><path class="b4638506-c334-41c5-8726-cae62749b271" d="M346.16,70.18A4.19,4.19,0,0,1,343,68.91a4.72,4.72,0,0,1-1.21-3.4v-.3a5.83,5.83,0,0,1,.53-2.52A4.17,4.17,0,0,1,343.85,61a3.81,3.81,0,0,1,2.1-.64,3.57,3.57,0,0,1,2.89,1.23,5.3,5.3,0,0,1,1,3.49v.68h-6.45a3.46,3.46,0,0,0,.82,2.28,2.62,2.62,0,0,0,2,.86,2.84,2.84,0,0,0,1.46-.35,3.86,3.86,0,0,0,1.05-.93l1,.77A4,4,0,0,1,346.16,70.18ZM346,61.65a2.18,2.18,0,0,0-1.65.72,3.46,3.46,0,0,0-.82,2h4.76v-.13a3.08,3.08,0,0,0-.67-1.91A2,2,0,0,0,346,61.65Z"/><path class="b4638506-c334-41c5-8726-cae62749b271" d="M356.35,62a4.92,4.92,0,0,0-.8-.06,2.14,2.14,0,0,0-2.17,1.36V70h-1.62V60.49h1.58l0,1.1a2.55,2.55,0,0,1,2.27-1.28,1.65,1.65,0,0,1,.72.13Z"/><path class="b4638506-c334-41c5-8726-cae62749b271" d="M359.39,60.49l.06,1.2a3.44,3.44,0,0,1,2.84-1.38c2,0,3,1.14,3,3.41V70h-1.62V63.71a2.13,2.13,0,0,0-.48-1.52,1.85,1.85,0,0,0-1.43-.5,2.3,2.3,0,0,0-1.39.43,2.93,2.93,0,0,0-.93,1.1V70h-1.62V60.49Z"/><path class="b4638506-c334-41c5-8726-cae62749b271" d="M373.66,70a3.26,3.26,0,0,1-.23-1,3.66,3.66,0,0,1-2.71,1.18,3.4,3.4,0,0,1-2.31-.8,2.56,2.56,0,0,1-.89-2,2.68,2.68,0,0,1,1.12-2.3,5.34,5.34,0,0,1,3.18-.83h1.58v-.74a1.83,1.83,0,0,0-.51-1.36,2,2,0,0,0-1.5-.51,2.39,2.39,0,0,0-1.46.44,1.32,1.32,0,0,0-.59,1.07h-1.63a2.25,2.25,0,0,1,.5-1.37,3.49,3.49,0,0,1,1.37-1.06,4.63,4.63,0,0,1,1.91-.39,3.75,3.75,0,0,1,2.57.83,3,3,0,0,1,1,2.26v4.38a5.42,5.42,0,0,0,.33,2.08V70ZM371,68.76a2.9,2.9,0,0,0,1.45-.39,2.39,2.39,0,0,0,1-1v-2h-1.27c-2,0-3,.58-3,1.74a1.49,1.49,0,0,0,.51,1.2A2,2,0,0,0,371,68.76Z"/><path class="b4638506-c334-41c5-8726-cae62749b271" d="M379.12,60.49l.05,1.2A3.47,3.47,0,0,1,382,60.31q3,0,3,3.41V70h-1.63V63.71a2.13,2.13,0,0,0-.47-1.52,1.89,1.89,0,0,0-1.44-.5,2.27,2.27,0,0,0-1.38.43,3,3,0,0,0-.94,1.1V70h-1.62V60.49Z"/><path class="b4638506-c334-41c5-8726-cae62749b271" d="M387.12,65.17a5.62,5.62,0,0,1,1-3.54,3.54,3.54,0,0,1,5.44-.09l.08-1h1.49v9.28a3.87,3.87,0,0,1-1.1,2.91,4,4,0,0,1-2.94,1.06,4.8,4.8,0,0,1-2-.44,3.37,3.37,0,0,1-1.5-1.2l.84-1a3.17,3.17,0,0,0,2.56,1.3,2.49,2.49,0,0,0,1.84-.67,2.53,2.53,0,0,0,.67-1.88v-.82a3.35,3.35,0,0,1-2.66,1.13,3.25,3.25,0,0,1-2.71-1.35A5.94,5.94,0,0,1,387.12,65.17Zm1.64.18a4.27,4.27,0,0,0,.66,2.53,2.14,2.14,0,0,0,1.84.92,2.38,2.38,0,0,0,2.26-1.4V63.06a2.41,2.41,0,0,0-2.24-1.37,2.14,2.14,0,0,0-1.85.93A4.58,4.58,0,0,0,388.76,65.35Z"/><path class="b4638506-c334-41c5-8726-cae62749b271" d="M401.56,70.18a4.17,4.17,0,0,1-3.14-1.27,4.72,4.72,0,0,1-1.22-3.4v-.3a5.69,5.69,0,0,1,.54-2.52A4.15,4.15,0,0,1,399.25,61a3.84,3.84,0,0,1,2.11-.64,3.53,3.53,0,0,1,2.88,1.23,5.25,5.25,0,0,1,1,3.49v.68h-6.44a3.41,3.41,0,0,0,.82,2.28,2.59,2.59,0,0,0,2,.86,2.87,2.87,0,0,0,1.46-.35,3.86,3.86,0,0,0,1.05-.93l1,.77A4,4,0,0,1,401.56,70.18Zm-.2-8.53a2.15,2.15,0,0,0-1.65.72,3.47,3.47,0,0,0-.83,2h4.77v-.13a3.08,3.08,0,0,0-.67-1.91A2,2,0,0,0,401.36,61.65Z"/><path class="b4638506-c334-41c5-8726-cae62749b271" d="M415.21,65.35a5.69,5.69,0,0,1-1,3.51,3.2,3.2,0,0,1-2.69,1.32,3.33,3.33,0,0,1-2.79-1.28l-.07,1.1h-1.5V56.5h1.63v5a3.27,3.27,0,0,1,2.71-1.23,3.22,3.22,0,0,1,2.72,1.31,5.84,5.84,0,0,1,1,3.59Zm-1.62-.18A4.45,4.45,0,0,0,413,62.6a2.15,2.15,0,0,0-1.85-.91,2.39,2.39,0,0,0-2.31,1.5V67.3a2.45,2.45,0,0,0,2.33,1.5,2.13,2.13,0,0,0,1.82-.91A4.68,4.68,0,0,0,413.59,65.17Z"/><path class="b4638506-c334-41c5-8726-cae62749b271" d="M416.84,65.16a5.75,5.75,0,0,1,.54-2.52,4.2,4.2,0,0,1,1.53-1.72,4.25,4.25,0,0,1,2.24-.61,4,4,0,0,1,3.14,1.35,5.14,5.14,0,0,1,1.21,3.58v.11a5.63,5.63,0,0,1-.54,2.5,4,4,0,0,1-1.52,1.71,4.2,4.2,0,0,1-2.27.62A4,4,0,0,1,418,68.83a5.19,5.19,0,0,1-1.19-3.56Zm1.63.19a4.12,4.12,0,0,0,.73,2.54,2.37,2.37,0,0,0,2,1,2.33,2.33,0,0,0,2-1,4.44,4.44,0,0,0,.73-2.72,4,4,0,0,0-.75-2.53,2.46,2.46,0,0,0-3.91,0A4.42,4.42,0,0,0,418.47,65.35Z"/><path class="b4638506-c334-41c5-8726-cae62749b271" d="M429.74,58.19v2.3h1.78v1.26h-1.78v5.89a1.35,1.35,0,0,0,.24.87,1,1,0,0,0,.81.28,4,4,0,0,0,.77-.11V70a4.61,4.61,0,0,1-1.25.18,2,2,0,0,1-1.64-.66,2.85,2.85,0,0,1-.56-1.88V61.75h-1.73V60.49h1.73v-2.3Z"/><path class="b4638506-c334-41c5-8726-cae62749b271" d="M435.24,66.39h-1.47l-.11-9.19h1.71Zm-1.64,2.79a1,1,0,0,1,.24-.66.91.91,0,0,1,.72-.27.94.94,0,0,1,.72.27,1,1,0,0,1,.24.66.92.92,0,0,1-.24.66,1,1,0,0,1-.72.26,1,1,0,0,1-.72-.26A.92.92,0,0,1,433.6,69.18Z"/><path class="b4638506-c334-41c5-8726-cae62749b271" d="M127.24,77.27c5.13-19.33-5.37-41-24.28-56.83,0,0-51.35,19.33-68.16,25.15,24.74,19.34,29.41,44.26,24.74,56.83L97.12,143l71.67-44.72V95S145.21,84.72,127.24,77.27ZM139.66,89l-4.22,2L131,88.84,135.2,87ZM119,88.6l4.51-1.86,4.09,2-4.54,2Zm1.83,3.13L116,93.82l-4-2.34,4.76-2Zm-3.39-4-3.83-2,4.5-1.71L121.92,86Zm-2.27.9-4.75,1.9-3.76-2.19,4.67-1.77ZM108,91.53l-5.36,2.14L99,91.3l5.25-2Zm-8,3.19L94.18,97l-3.55-2.58,5.7-2.16Zm-8.57,3.42-6.61,2.63-3.38-2.83L88,95.47ZM93,99.3l3.8,2.92L90,105.15,86.32,102Zm2.77-1.14,5.85-2.41,4,2.63-6,2.6Zm8.45-3.48,5.37-2.21,4,2.4-5.46,2.38Zm11.12,1.2,4.44,2.62-5.59,2.66-4.35-2.82Zm2.37-1.06,4.84-2.17,4.46,2.4-4.89,2.33Zm7.07-3.17,4.51-2,4.44,2.22L129.17,94Zm8.75-5.46L129.3,88l-4.1-2,4.15-1.71Zm-5.67-2.57-4.15,1.66-3.87-1.88,4.1-1.55ZM61.64,99.3,126.39,77l-.33.73L61.41,100.79Zm9.87,2.42,6.92-2.64L81.75,102l-7.13,2.84ZM76,106.28l7.2-3,3.66,3.22-7.4,3.23Zm8.82,8.88L81,111.26l7.49-3.36,4.07,3.58Zm10.9-5.2-4.13-3.47,6.75-3,4.2,3.23Zm9.76-4.66-4.28-3.11,6-2.69,4.37,2.89Zm21.86,10.78-14-9.25,19.14-9.25,13.14,7.48ZM55.73,88c-6-18.88-17.61-29.9-38.51-39.48C43,30.56,77.29,6.16,77.29,6.16c8.28,3.41,15.77,8.27,19.06,12.47C68,29,27.74,44.2,27.74,44.2,40.75,54.69,52.05,68.72,55.73,88Zm-6.3,2.1C41.67,71,24.45,57.31,0,54.3,22.35,30.3,50,0,50,0A75.66,75.66,0,0,1,69,5.77C40.88,25.44,7.75,49.05,7.75,49.05,25,55.08,44.82,71.61,49.42,90.1Z"/></svg>